<?xml version="1.0" encoding="UTF-8" standalone="no"?>
<!-- Created with Inkscape (http://www.inkscape.org/) -->

<svg
   xmlns:dc="http://purl.org/dc/elements/1.1/"
   xmlns:cc="http://creativecommons.org/ns#"
   xmlns:rdf="http://www.w3.org/1999/02/22-rdf-syntax-ns#"
   xmlns:svg="http://www.w3.org/2000/svg"
   xmlns="http://www.w3.org/2000/svg"
   xmlns:xlink="http://www.w3.org/1999/xlink"
   version="1.1"
   width="300"
   height="247.63051"
   viewBox="0 0 299.99999 247.6305"
   id="svg3390">
  <metadata
     id="metadata3396">
    <rdf:RDF>
      <cc:Work
         rdf:about="">
        <dc:format>image/svg+xml</dc:format>
        <dc:type
           rdf:resource="http://purl.org/dc/dcmitype/StillImage" />
        <dc:title></dc:title>
      </cc:Work>
    </rdf:RDF>
  </metadata>
  <defs
     id="defs3394">
    <linearGradient
       id="linearGradient4297">
      <stop
         id="stop4299"
         style="stop-color:#002255;stop-opacity:1"
         offset="0" />
      <stop
         id="stop4301"
         style="stop-color:#002255;stop-opacity:0"
         offset="1" />
    </linearGradient>
    <linearGradient
       x1="137.74564"
       y1="-9.8195963"
       x2="355.4184"
       y2="-9.8195963"
       id="linearGradient4303"
       xlink:href="#linearGradient4297"
       gradientUnits="userSpaceOnUse" />
  </defs>
  <g
     id="g3469">
    <g
       transform="matrix(0.8993218,0,0,0.8993218,-4.0543668,-4.496603)"
       id="g4206">
      <ellipse
         cx="246.58202"
         cy="-9.8195963"
         rx="108.83638"
         ry="108.83637"
         transform="matrix(0.86602541,0.5,-0.5,0.86602541,0,0)"
         id="path3425"
         style="fill:url(#linearGradient4303);fill-opacity:1;stroke:none" />
      <path
         d="m 105.99099,133.8703 c 0,0 32.08535,-47.445733 56.35896,-38.857563 13.04644,4.61594 96.53389,63.103943 88.91899,28.505323 -16.21821,-73.688078 79.96807,15.75326 79.96807,15.75326"
         id="path4253-1"
         style="fill:none;stroke:#ffffff;stroke-width:20.13599968;stroke-linecap:butt;stroke-linejoin:miter;stroke-miterlimit:4;stroke-opacity:1;stroke-dasharray:none" />
      <ellipse
         cx="218.61971"
         cy="114.99999"
         rx="108.83638"
         ry="108.83637"
         id="path3425-6"
         style="fill:none;stroke:#000000;stroke-width:2.32725334;stroke-linejoin:miter;stroke-miterlimit:4;stroke-opacity:1;stroke-dasharray:none;stroke-dashoffset:0" />
    </g>
    <g
       id="text4306"
       style="font-size:161.87792969px;font-style:normal;font-variant:normal;font-weight:normal;font-stretch:normal;line-height:125%;letter-spacing:0px;word-spacing:0px;fill:#214478;fill-opacity:1;stroke:none;font-family:DejaVu Sans;-inkscape-font-specification:DejaVu Sans">
      <path
         d="m 40.961752,229.25551 c 0,-10.43749 -7.50001,-18.3125 -17.4375,-18.3125 -4.499996,0 -7.562503,1.25 -10.75,4.4375 l 0,-14.75 -8.3125001,0 0,46.1875 7.6250001,0 0,-4.4375 c 3.562496,3.81249 6.875005,5.25 12,5.25 9.74999,0 16.875,-7.93751 16.875,-18.375 m -8.375,0.0625 c 0,6.31249 -4.125006,10.6875 -10.0625,10.6875 -5.999994,0 -10.25,-4.43751 -10.25,-10.75 0,-6.25 4.250006,-10.6875 10.0625,-10.6875 5.937494,0 10.25,4.5625 10.25,10.75"
         id="path3053"
         style="font-size:62.5px;font-weight:bold;fill:#214478;font-family:TeX Gyre Adventor;-inkscape-font-specification:TeX Gyre Adventor Bold" />
      <path
         d="m 80.784018,246.81801 0,-34.625 -7.625,0 0,4.625 c -2.874998,-3.8125 -6.312505,-5.4375 -11.3125,-5.4375 -10.24999,0 -17.625,7.68751 -17.625,18.25 0,10.43749 7.31251,18 17.4375,18 4.874995,0 8.187503,-1.56251 11.5,-5.3125 l 0,4.5 7.625,0 m -7.875,-17.0625 c 0,5.74999 -3.750007,10.25 -10.0625,10.25 -6.062494,0 -10.25,-4.12501 -10.25,-10.1875 0,-6.3125 4.187506,-10.8125 10.125,-10.8125 5.937494,0 10.1875,4.4375 10.1875,10.75"
         id="path3055"
         style="font-size:62.5px;font-weight:bold;fill:#214478;font-family:TeX Gyre Adventor;-inkscape-font-specification:TeX Gyre Adventor Bold" />
      <path
         d="m 102.73128,219.38051 0,-8 -0.625,0 c -3.562493,0 -5.312499,1 -7.499997,4.1875 l 0,-3.375 -7.625,0 0,34.625 8.3125,0 0,-19.25 c 0,-5.375 2.437505,-8.0625 7.437497,-8.1875"
         id="path3057"
         style="font-size:62.5px;font-weight:bold;fill:#214478;font-family:TeX Gyre Adventor;-inkscape-font-specification:TeX Gyre Adventor Bold" />
      <path
         d="m 140.84261,246.81801 0,-34.625 -7.625,0 0,4.625 c -2.875,-3.8125 -6.3125,-5.4375 -11.3125,-5.4375 -10.24999,0 -17.625,7.68751 -17.625,18.25 0,10.43749 7.31251,18 17.4375,18 4.875,0 8.1875,-1.56251 11.5,-5.3125 l 0,4.5 7.625,0 m -7.875,-17.0625 c 0,5.74999 -3.75,10.25 -10.0625,10.25 -6.06249,0 -10.25,-4.12501 -10.25,-10.1875 0,-6.3125 4.18751,-10.8125 10.125,-10.8125 5.9375,0 10.1875,4.4375 10.1875,10.75"
         id="path3059"
         style="font-size:62.5px;font-weight:bold;fill:#214478;font-family:TeX Gyre Adventor;-inkscape-font-specification:TeX Gyre Adventor Bold" />
      <path
         d="m 178.35238,246.81801 -14.375,-17.6875 12.375,-16.9375 -9.9375,0 -11.0625,16.3125 0,-27.875 -8.3125,0 0,46.1875 8.3125,0 0,-16.1875 11.8125,16.1875 11.1875,0"
         id="path3061"
         style="font-size:62.5px;font-weight:bold;fill:#214478;font-family:TeX Gyre Adventor;-inkscape-font-specification:TeX Gyre Adventor Bold" />
      <path
         d="m 211.90999,246.81801 0,-34.625 -8.3125,0 0,16.3125 c 0,4.62499 -0.375,6.75 -1.3125,8.3125 -1.24999,2 -3.5,3.1875 -6.3125,3.1875 -3.99999,0 -6.5625,-1.68751 -6.5625,-10.875 l 0,-16.9375 -8.3125,0 0,18.5625 c 0,12.18749 5.12501,16.875 13.1875,16.875 4.1875,0 6.81251,-1.0625 9.9375,-4.125 l 0,3.3125 7.6875,0"
         id="path3063"
         style="font-size:62.5px;font-weight:bold;fill:#214478;font-family:TeX Gyre Adventor;-inkscape-font-specification:TeX Gyre Adventor Bold" />
      <path
         d="m 253.51058,246.81801 0,-46.1875 -8.3125,0 0,14.625 c -2.4375,-2.6875 -6.4375,-4.3125 -10.8125,-4.3125 -9.68749,0 -17.3125,8.12501 -17.3125,18.5 0,10.24999 7.56251,18.1875 17.375,18.1875 4.6875,0 8.125,-1.56251 11.4375,-5.3125 l 0,4.5 7.625,0 m -7.6875,-17.5 c 0,5.99999 -4.43751,10.6875 -10.0625,10.6875 -5.81249,0 -10.3125,-4.81251 -10.3125,-10.9375 0,-5.875 4.43751,-10.5 10.125,-10.5 5.81249,0 10.25,4.6875 10.25,10.75"
         id="path3065"
         style="font-size:62.5px;font-weight:bold;fill:#214478;font-family:TeX Gyre Adventor;-inkscape-font-specification:TeX Gyre Adventor Bold" />
      <path
         d="m 294.89535,246.81801 0,-34.625 -7.625,0 0,4.625 c -2.875,-3.8125 -6.31251,-5.4375 -11.3125,-5.4375 -10.24999,0 -17.625,7.68751 -17.625,18.25 0,10.43749 7.31251,18 17.4375,18 4.87499,0 8.1875,-1.56251 11.5,-5.3125 l 0,4.5 7.625,0 m -7.875,-17.0625 c 0,5.74999 -3.75001,10.25 -10.0625,10.25 -6.0625,0 -10.25,-4.12501 -10.25,-10.1875 0,-6.3125 4.1875,-10.8125 10.125,-10.8125 5.93749,0 10.1875,4.4375 10.1875,10.75"
         id="path3067"
         style="font-size:62.5px;font-weight:bold;fill:#214478;font-family:TeX Gyre Adventor;-inkscape-font-specification:TeX Gyre Adventor Bold" />
    </g>
    <g
       transform="matrix(0.8993218,0,0,0.8993218,-4.0543668,-4.496603)"
       id="g4211">
      <path
         d="m 85.713219,217.83049 c -0.05549,-0.44408 -0.01475,-1.03167 0.114469,-1.65106 0.362061,-1.73549 0.0927,-4.03633 -0.639549,-5.46289 -0.247145,-0.48148 -0.507263,-1.235 -0.57804,-1.67448 -0.09548,-0.59289 -0.274506,-1.01855 -0.69385,-1.64973 -0.310841,-0.46787 -0.803035,-1.35867 -1.093765,-1.97956 -0.393714,-0.84082 -0.759473,-1.37281 -1.433368,-2.08479 -0.49762,-0.52575 -1.061306,-1.26482 -1.252633,-1.64239 -0.191326,-0.37756 -0.750346,-1.11171 -1.242267,-1.63143 -0.983737,-1.03934 -1.069134,-1.31628 -0.587411,-1.90496 0.325793,-0.39813 0.09508,-0.36036 4.578787,-0.74954 1.833976,-0.15918 2.025276,-0.2419 1.954446,-0.84511 -0.0469,-0.39936 -0.055,-0.4026 -2.081682,-0.8314 -1.508093,-0.31908 -3.304277,-0.84434 -3.53112,-1.0326 -0.08965,-0.0744 -0.621022,-0.18996 -1.18082,-0.25679 -2.596412,-0.30998 -6.782791,-1.07258 -10.176481,-1.85378 -5.063923,-1.16567 -12.481978,-2.2855 -15.15914,-2.28843 -3.441037,-0.004 -4.486433,0.1865 -8.11734,2.29171 -15.147508,8.78256 -16.652648,-14.81648 -23.892033,-23.24616 0.04958,-7.10748 -2.21462,-7.85389 -4.743647,-13.26845 -19.3789716,-26.32193 10.899517,-3.37148 22.999265,6.38388 11.189273,9.8296 12.608074,10.495 22.002337,10.31876 2.071952,-0.0389 4.728687,-0.15887 5.903855,-0.26666 1.175168,-0.10779 2.981624,-0.26262 4.014347,-0.34406 2.239706,-0.17664 6.866498,-0.68495 9.388394,-1.03144 0.997112,-0.137 2.599614,-0.34225 3.561115,-0.45611 3.882648,-0.45979 4.493657,-0.61205 4.344324,-1.08255 -0.113876,-0.3588 -0.309315,-0.40352 -2.023945,-0.46318 -1.480595,-0.0515 -2.86138,-0.17523 -6.010989,-0.53859 -1.956127,-0.22566 -2.087467,-0.25683 -2.188149,-0.5192 -0.142819,-0.37218 0.463533,-0.7806 1.418224,-0.95527 1.353651,-0.24767 2.129463,-0.74884 3.793423,-2.45054 1.061236,-1.0853 1.587552,-1.73676 1.894219,-2.3446 1.218484,-2.41514 1.642577,-3.1805 1.931151,-3.48516 0.174497,-0.18422 0.45954,-0.65895 0.633426,-1.05495 0.173886,-0.39601 0.583599,-1.02113 0.910474,-1.38918 0.384233,-0.43262 0.625498,-0.84185 0.682522,-1.15767 0.122824,-0.68025 0.260318,-0.92093 0.909858,-1.5927 0.724207,-0.749 0.926537,-1.62115 0.694806,-2.995 -0.725015,-4.29838 3.03455,-2.084 13.335418,7.85455 2.79029,2.69215 6.99095,6.40187 7.8078,6.8953 1.82238,1.10083 15.73324,1.72615 34.02509,1.52948 6.96025,-0.0748 8.36134,-0.12822 13.59698,-0.51813 3.92967,-0.29265 4.14017,-0.32379 3.78471,-0.55981 -0.37484,-0.24888 -0.36538,-0.3221 0.1117,-0.86547 0.44762,-0.5098 0.65923,-1.33662 0.89028,-3.47864 0.16385,-1.51904 0.42125,-2.08182 1.20328,-2.6308 1.18262,-0.83021 1.51987,-1.77932 1.52147,-4.28172 10e-4,-1.56458 0.14022,-1.9838 0.85274,-2.56765 0.70298,-0.57605 0.81841,-0.84074 0.95662,-2.19379 0.11327,-1.10885 0.45156,-1.62363 1.06703,-1.62363 0.47899,0 1.38163,-0.62918 1.64597,-1.14733 0.37811,-0.74116 0.5529,-0.8379 1.33695,-0.73994 0.48496,0.0606 0.9957,0.0104 1.76644,-0.17373 0.96929,-0.23151 1.13105,-0.23939 1.52591,-0.0744 0.69753,0.29145 3.22605,2.86301 5.71778,5.81513 4.35797,5.16317 4.7225,5.58713 6.2551,7.2747 1.46197,1.6098 2.42146,2.51307 2.66949,2.51307 0.0618,0 0.22421,0.0818 0.36095,0.18179 0.2364,0.17287 0.2265,0.19193 -0.20187,0.38858 -0.45048,0.20679 -0.45048,0.20679 0.003,0.14227 18.48841,-2.63198 21.27411,-3.19552 30.62559,-6.19545 1.21078,-0.38841 2.63847,-0.83278 3.17263,-0.98748 0.53417,-0.1547 3.79745,-1.2049 7.25173,-2.33376 8.31814,-2.71839 14.28185,-4.58473 17.99981,-5.63303 3.86449,-1.08962 7.89183,-2.35263 10.5961,-3.32302 1.16278,-0.41726 3.14406,-1.05451 4.40283,-1.41613 8.27026,-2.37585 11.98911,-3.89456 14.39646,-5.87926 4.40367,-3.63054 6.59736,-4.87918 7.73308,-4.40165 0.76128,0.3201 0.63395,1.92484 -0.22051,2.7793 -0.13552,0.13552 -0.28276,0.43904 -0.32719,0.67448 -0.0541,0.28695 0.76509,1.82454 1.67914,3.14345 -2.60877,-2.30161 -3.81421,-0.38703 -3.81421,-0.31824 0,0.14797 -0.32224,0.56844 -0.78781,1.02799 0.69472,1.68911 0.3604,0.98425 0.98897,2.23539 0.32431,0.64203 0.568,1.18896 0.54155,1.21541 -0.0265,0.0265 -0.59017,-0.45773 -1.25272,-1.07596 -1.13605,-1.06009 -1.21442,-1.10971 -1.37731,-0.8721 -0.095,0.13857 -0.26985,0.35095 -0.3886,0.47195 -0.14746,0.15029 -0.18907,0.32685 -0.13126,0.55715 0.0764,0.30426 0.0598,0.32384 -0.17003,0.20085 -0.36282,-0.19418 -0.34569,-0.20781 -0.74745,0.59472 -1.34159,4.98304 -6.72477,9.96456 -6.90546,12.4375 0,0.20918 -0.0752,0.29898 -0.25025,0.29898 -0.2405,0 -0.50063,0.45774 -0.34729,0.61109 0.0405,0.0405 -0.0651,0.34201 -0.23453,0.67009 -0.73945,1.43152 -1.62276,4.19797 -1.61693,5.06408 0.002,0.32374 0.002,0.32374 0.20542,0.0324 1.69302,-0.42397 1.93256,3.378 3.63322,3.77019 5.7394,-2.85745 17.69929,-0.16904 19.64919,-2.44961 0.30546,-0.10771 3.33136,-0.20036 3.46691,-0.0391 0.7724,-1.0687 1.47177,-0.98337 1.42669,-3.83899 l -0.0286,-1.68344 0.5718,1.14947 c 0.31449,0.63221 0.72132,1.30553 0.90406,1.49628 0.18275,0.19075 0.33226,0.41161 0.33226,0.4908 0,0.21062 0.26576,0.26561 0.75358,0.15594 0.72659,-0.16335 1.81937,0.29743 2.08428,0.87885 0.18209,0.39964 0.1809,1.16248 -0.002,1.27552 -0.081,0.05 -0.11039,0.24884 -0.0681,0.46021 0.0876,0.43829 -0.4105,1.0888 -1.19046,1.55455 -0.26211,0.15651 -0.62224,0.41564 -0.80029,0.57584 -0.97591,0.87805 -4.59831,2.37001 -9.31514,3.61708 -5.30091,1.873 -5.03807,1.67467 -10.04438,2.92 -3.48989,0.8674 -6.84058,1.71655 -7.44597,1.887 -2.94341,0.82875 -4.37217,1.25532 -4.72657,1.41117 -3.31261,1.09792 -3.80996,1.38985 -5.98915,1.94004 -2.46996,0.86798 -2.88092,0.65153 -4.28571,1.59445 -9.41235,3.92947 4.17602,-1.35604 -19.03596,7.45135 -9.86619,4.14755 -12.89659,4.58795 -15.13595,5.31086 -1.79793,0.52144 -2.68042,0.83376 -3.6934,1.30712 -0.66581,0.31114 -1.49898,0.65429 -1.85148,0.76255 -2.7179,0.89947 -5.5664,1.50884 -8.21637,2.34385 -0.96151,0.3049 -2.18523,0.68445 -2.7194,0.84345 -2.30086,0.68488 -2.32343,0.69965 -1.58911,1.04084 0.52337,0.24317 0.53864,0.57917 0.16178,3.56111 -0.72011,5.69791 -1.8286,10.63624 -2.70908,12.06884 -0.34961,0.56885 -1.05888,0.76085 -1.81939,0.49253 -1.16473,-0.41095 -1.21409,-0.37588 -1.7545,1.24592 -0.65279,1.95903 -0.94328,2.21546 -1.86991,1.65058 -0.24795,-0.15115 -0.67325,-0.3533 -0.94511,-0.44922 -0.27186,-0.0959 -0.73913,-0.37305 -1.03838,-0.61586 -0.29925,-0.24281 -0.84325,-0.59158 -1.20889,-0.77506 -0.53084,-0.26638 -0.77231,-0.50382 -1.19833,-1.17839 -0.36936,-0.58482 -0.68823,-0.9237 -1.03625,-1.10124 -0.2765,-0.14106 -0.6851,-0.48676 -0.90803,-0.76823 -0.37189,-0.46953 -0.56412,-0.84786 -1.24897,-2.4579 -0.132,-0.31031 -0.48431,-0.82285 -0.78291,-1.13898 -0.54657,-0.57861 -0.71538,-1.00679 -0.90024,-2.28341 -0.0494,-0.34084 -0.2285,-0.82418 -0.39809,-1.07408 -0.39681,-0.58473 -0.38959,-0.89252 0.0277,-1.18142 0.18485,-0.12796 0.4325,-0.33759 0.55036,-0.46585 0.75221,-0.81858 1.08548,-1.06466 2.17306,-1.60456 1.3839,-0.68701 1.53009,-0.89404 0.53399,-0.75617 -2.01567,0.27899 -2.46615,0.31982 -3.59348,0.32576 -0.67662,0.004 -1.77617,0.064 -2.44347,0.13427 -2.19893,0.23161 -4.65367,0.18957 -4.95695,-0.0849 -0.54485,-0.0335 -0.81302,0.064 -1.4483,-0.18479 -0.27846,0.10586 -0.97514,0.0881 -2.18114,-0.0555 -0.33302,-0.0397 -0.63801,-0.0195 -0.67777,0.0448 -0.072,0.11647 -1.49853,0.0921 -2.73108,-0.0466 -0.35611,-0.0401 -1.46329,-0.0122 -2.4604,0.062 -1.65877,0.1234 -2.8004,0.16525 -3.30213,0.12104 -0.10684,-0.009 -0.95179,0.0284 -1.87768,0.0839 -0.92589,0.0556 -1.79998,0.093 -1.94242,0.0832 -0.96586,-0.0666 -3.99206,-0.0182 -5.17981,0.0828 -0.78344,0.0667 -1.65753,0.0965 -1.94242,0.0664 -2.04971,0.30256 -4.52965,-0.0547 -5.9244,0.005 -1.64991,0.0721 -5.36127,0.0871 -7.31284,0.0294 -0.51435,-0.0152 -1.38845,0.0159 -1.94243,0.0691 -0.55397,0.0532 -1.55871,0.0448 -2.23277,-0.0187 -1.24963,0.0266 -2.55762,-0.0213 -3.69526,-0.0751 -0.42734,-0.0197 -1.09748,-0.0649 -1.4892,-0.1004 -10.93214,0.23991 -21.65508,0.23751 -25.77062,0.75068 -1.87381,0.34003 -2.05132,0.43483 -5.24345,2.80028 -9.038397,6.6977 -12.668449,9.23906 -16.151642,11.30759 -1.779546,1.05682 -3.318449,1.76254 -3.843387,1.76254 -0.194177,0 -0.257882,-0.13421 -0.327255,-0.68947 z M 206.27428,198.47938 c -0.14531,-0.14532 -0.45545,0.28702 -0.53623,0.74754 -0.0792,0.4515 -0.0792,0.4515 0.26875,-0.10778 0.19138,-0.3076 0.31175,-0.59549 0.26748,-0.63976 z m 38.5458,-44.50941 c 0.11763,-0.56618 0.0438,-0.71858 -0.2174,-0.44884 -0.1577,0.16283 -0.26016,0.6096 -0.21602,0.94192 0.0385,0.28984 0.34264,-0.0562 0.43342,-0.49308 z"
         id="path3406"
         style="fill:#9a9a9a" />
      <path
         d="m 87.312346,217.63426 c 0.195644,-0.36557 0.192386,-0.37072 -0.291913,-0.46157 -0.836019,-0.15685 -1.047689,-0.5614 -0.880806,-1.68344 0.07946,-0.53423 0.116982,-1.04694 0.08339,-1.13936 -0.0336,-0.0924 -0.149767,-0.76755 -0.258163,-1.50032 -0.145989,-0.9869 -0.311241,-1.55898 -0.637449,-2.20674 -0.242203,-0.48095 -0.482467,-1.16342 -0.533922,-1.5166 -0.105692,-0.72548 -0.280058,-1.1116 -0.96245,-2.13134 -0.262136,-0.39172 -0.57848,-0.97445 -0.702984,-1.29495 -0.378755,-0.97498 -0.860826,-1.70783 -1.70365,-2.5899 -0.442347,-0.46294 -0.959552,-1.15116 -1.149343,-1.52936 -0.18979,-0.3782 -0.664947,-1.03558 -1.055903,-1.46085 -0.965804,-1.05055 -1.086215,-1.38844 -0.625659,-1.75567 0.58625,-0.46746 1.133765,-0.45181 1.696101,0.0485 0.48297,0.42968 0.48297,0.42968 2.50744,0.3778 1.113459,-0.0285 2.135796,-0.10975 2.271862,-0.18049 0.136066,-0.0707 0.524188,-0.16877 0.862494,-0.21785 1.011631,-0.14676 0.761595,0.47522 -0.553415,1.37666 -0.743919,0.50996 0.616932,0.21107 2.787206,-0.61216 1.401934,-0.53178 1.80773,-0.56073 1.342783,-0.0958 -0.108884,0.10888 -0.01761,0.20804 0.356111,0.38686 0.44485,0.21286 0.49875,0.2882 0.469655,0.65646 -0.02312,0.29269 0.02295,0.41601 0.155434,0.41601 0.103567,0 0.241735,0.0955 0.307042,0.21218 0.12575,0.2247 0.92278,-0.0813 1.901303,-0.72993 0.414317,-0.27464 1.03331,-0.34354 1.165456,-0.12973 0.04402,0.0712 0.181924,0.1295 0.306458,0.1295 0.246699,0 0.664755,0.80102 0.664755,1.27371 0,0.15413 0.05535,0.28023 0.123003,0.28023 0.162993,0 1.145212,-0.66698 1.59147,-1.0807 0.330942,-0.30681 0.416198,-0.32375 1.269144,-0.25224 0.954517,0.08 1.042943,0.23999 0.233384,0.42221 -0.434556,0.0978 -0.41555,0.12556 0.224493,0.32773 0.172526,0.0545 0.142537,0.17817 -0.193746,0.79905 -0.504645,0.93173 -0.450084,0.97254 0.330596,0.24729 0.670193,-0.62261 1.031878,-0.71746 1.518955,-0.39832 0.163262,0.10698 0.640792,0.25809 1.061162,0.3358 0.42036,0.0777 0.94029,0.23441 1.1554,0.34822 0.25004,0.1323 0.90484,0.23714 1.81554,0.29069 2.26058,0.13292 3.32564,0.75773 2.85221,1.67325 -0.49524,0.95769 -11.344682,8.91273 -16.060707,11.77604 -2.637399,1.60128 -3.715586,2.09897 -3.442734,1.58914 z"
         id="path3587"
         style="fill:#616161" />
      <path
         d="m 92.477365,210.33587 c 0.244434,-0.24444 0.181631,-0.38574 -0.103596,-0.23309 -0.142445,0.0762 -0.25899,0.19483 -0.25899,0.26354 0,0.17151 0.175358,0.15678 0.362586,-0.0305 z"
         id="path3585"
         style="fill:#616161" />
      <path
         d="m 200.6757,216.96154 c -0.41595,-0.20674 -0.82036,-0.37771 -0.89871,-0.37995 -0.0783,-0.002 -0.39124,-0.19344 -0.69533,-0.42492 -0.3041,-0.23147 -0.88099,-0.59568 -1.282,-0.80934 -0.57014,-0.30379 -0.85187,-0.57201 -1.2922,-1.23021 -0.33632,-0.50274 -0.78501,-0.98047 -1.11412,-1.18626 -0.80933,-0.50606 -1.31909,-1.20197 -1.78543,-2.43742 -0.29558,-0.78311 -0.58842,-1.29042 -1.01986,-1.76683 -0.59416,-0.65609 -0.89155,-1.42585 -0.89155,-2.30767 0,-0.16732 -0.17482,-0.63655 -0.38848,-1.04274 -0.4742,-0.90147 -0.48875,-0.77517 0.13452,-1.16863 0.28765,-0.18159 0.57477,-0.4663 0.63804,-0.6327 0.1345,-0.35377 0.58182,-0.64662 2.19872,-1.43945 1.07865,-0.52891 1.16955,-0.60197 1.04303,-0.83835 -0.0762,-0.14242 -0.23364,-0.25895 -0.34985,-0.25895 -0.67395,0 1.47887,-0.72848 3.42981,-1.16059 0.69198,-0.15327 1.43711,-0.33361 1.65583,-0.40076 0.68975,-0.21175 0.87133,-0.16477 0.77936,0.20165 -0.0591,0.2353 -0.0293,0.32374 0.10902,0.32374 0.10464,0 0.24821,0.10198 0.31901,0.22662 0.1083,0.19062 0.17046,0.20108 0.39134,0.0659 0.19768,-0.121 0.34062,-0.12517 0.57828,-0.0169 0.2511,0.1144 0.37698,0.10092 0.61514,-0.0659 0.40804,-0.28581 0.50079,-0.26469 0.50079,0.11401 0,0.17805 0.0583,0.32373 0.12949,0.32373 0.0712,0 0.1295,-0.1131 0.1295,-0.25134 0,-0.13824 0.0606,-0.28883 0.13474,-0.33463 0.0741,-0.0458 0.2849,-0.32114 0.46844,-0.61186 0.57749,-0.91483 0.77511,0.0583 0.57782,2.84523 -0.21859,3.08821 -0.26381,4.42471 -0.13482,3.98564 0.27156,-0.92428 1.28535,-5.46798 1.28574,-5.76253 0.001,-1.06946 0.51976,-1.71253 1.41533,-1.75597 0.2641,-0.0128 0.59249,-0.0813 0.72976,-0.15212 0.27165,-0.14024 0.58306,-0.0778 0.73319,0.14695 0.50408,0.75477 -1.11822,10.7549 -2.24962,13.86699 -0.51021,1.40343 -0.8253,1.67851 -1.78635,1.55951 -1.8913,-0.23419 -1.78767,-0.28746 -2.26007,1.16183 -0.69226,2.12381 -0.73976,2.16529 -1.84851,1.61421 z"
         id="path3583"
         style="fill:#616161" />
      <path
         d="m 197.39771,213.85173 c 0.0781,-0.14597 0.12308,-0.42276 0.0999,-0.6151 -0.0421,-0.34971 -0.0421,-0.34971 -0.26697,0.0647 -0.24852,0.45808 -0.29232,0.81577 -0.0999,0.81577 0.0687,0 0.18885,-0.11942 0.26697,-0.26539 z"
         id="path3581"
         style="fill:#616161" />
      <path
         d="m 198.16722,211.69315 c 0.007,-0.2933 -0.36043,-0.0204 -0.44365,0.32905 -0.0454,0.1907 -0.11338,0.46329 -0.15101,0.60573 -0.0376,0.14244 0.0799,0.0259 0.26111,-0.25899 0.18122,-0.28489 0.33132,-0.589 0.33355,-0.67579 z"
         id="path3579"
         style="fill:#616161" />
      <path
         d="m 197.74409,209.96886 c -0.0484,-0.18522 0.0624,-0.3909 0.37339,-0.69293 0.24324,-0.23624 0.44226,-0.50646 0.44226,-0.60049 0,-0.094 0.0796,-0.26296 0.17685,-0.3754 0.20073,-0.23205 0.43231,-1.05937 0.23846,-0.85191 -0.84227,0.90137 -1.71495,2.78414 -1.29049,2.78414 0.0706,0 0.0974,-0.11853 0.0595,-0.26341 z"
         id="path3577"
         style="fill:#616161" />
      <path
         d="m 204.48588,207.25388 c 0,-0.28877 -0.0106,-0.28178 -0.0989,0.0648 -0.0544,0.21367 -0.0988,0.53417 -0.0988,0.71222 0,0.28878 0.0106,0.28179 0.0988,-0.0647 0.0544,-0.21367 0.0989,-0.53417 0.0989,-0.71223 z"
         id="path3575"
         style="fill:#616161" />
      <path
         d="m 197.24486,201.86225 c 1.3373,-0.3869 1.54619,-0.70899 0.41115,-0.63393 -0.93628,0.0619 -1.28239,0.24491 -1.29356,0.68389 -0.005,0.20471 0.004,0.20419 0.88241,-0.05 z"
         id="path3573"
         style="fill:#616161" />
      <path
         d="m 6.1947883,210.49126 c 3.7902399,-7.10893 19.6442467,-13.01889 16.1527307,-23.03701 2.98093,-7.37802 1.688559,-12.71177 -2.046185,-20.13671 2.283882,-9.42382 -8.008359,-18.24753 -12.2685818,-24.1792 10.1561938,1.11307 18.0255778,9.39204 25.9846488,15.31753 7.900431,5.99543 15.001324,16.05598 26.154432,14.67094 9.553594,-0.0401 19.205918,-0.67543 28.279737,-3.33816 -2.938278,-2.16298 -16.039458,-0.14263 -6.040834,-4.16375 6.768181,-3.84396 6.308807,-22.24589 15.188428,-12.97001 7.578016,7.58494 15.316156,16.081 26.924806,14.88544 13.59681,-0.29116 27.38941,1.28328 40.85056,-1.29782 -3.08297,-3.604 2.71499,-14.21536 5.64029,-18.36012 7.90079,-6.34489 13.85975,11.03469 18.32876,13.1829 -1.75053,4.43072 15.46159,-0.99625 22.55424,-1.55909 14.76683,-3.65574 28.84743,-9.66962 43.70346,-13.39472 10.6543,-3.16222 21.69507,-5.85693 30.09183,-13.4851 3.93355,2.78527 -8.73629,12.83101 -9.83016,18.55605 -2.05542,4.40233 -7.98469,13.23595 0.0799,12.18518 9.362,0.19744 18.70066,-0.40831 27.83573,-2.07683 0.40231,3.87039 -9.73967,4.23426 -16.40908,5.00132 -0.5454,3.57046 -12.69202,2.68072 -18.29962,3.8834 -6.85331,2.75895 -7.34901,-6.29402 -6.29845,-9.74818 -4.56725,2.01506 1.88304,-3.74486 -3.2597,0.65612 -0.44399,-3.55777 -6.58303,6.39057 -3.71249,-2.00194 -3.68417,3.87174 -10.45512,-1.70094 -15.28804,0.0553 -0.61298,1.55285 -2.14799,-0.85197 -5.22447,1.59768 -2.68209,0.28475 1.38148,2.26074 -3.96414,3.6433 -2.53566,-0.36413 -4.13032,1.26271 -6.98862,0.95952 -2.94477,4.17836 -6.07817,-7.13721 -5.3316,0.35194 2.90722,3.63747 0.6904,3.16857 -0.56501,2.89905 -0.45005,2.96188 2.78032,6.81888 4.29833,8.79675 1.19772,5.27026 -7.87407,-5.78213 -2.54969,2.57275 1.45779,1.51831 -5.40427,-4.59002 -6.40467,-4.22564 -3.64429,-1.51704 -13.3518,-3.01724 -3.97887,-0.20767 -6.81583,-1.44589 2.67217,1.41172 -0.36457,1.28842 7.10016,1.99277 -0.71927,14.31405 -5.19442,14.41105 -6.28152,0.6794 -11.70575,-2.76006 -15.45047,-6.89711 -3.58597,-3.78227 -8.52423,-8.43845 -2.01359,-11.38767 7.3601,-3.14512 16.72366,1.80162 23.62436,-0.34963 -0.32559,-3.40763 -2.24616,-2.02853 -3.29227,-2.82967 -1.38371,0.0404 -3.43265,-1.94018 -0.33634,-1.56071 3.40253,-1.89839 0.4911,-2.91222 -2.96591,-0.54289 -0.0921,-0.10351 -4.69793,1.43118 -4.73053,1.50635 -1.24396,-0.59348 -6.40593,0.0924 -6.34526,-1.72936 -1.58971,-1.54614 -7.56767,-2.00319 -8.07353,2.69016 -2.99764,3.78186 -7.09095,0.4221 -9.92626,-0.37311 -2.59438,0.63529 -2.82168,-0.0193 -4.61876,1.11473 -1.43629,3.54906 -5.87745,3.18969 -8.45409,0.83961 -0.81553,0.58042 -5.4042,-3.19909 -7.48078,-0.28358 -0.17751,2.1514 -5.80484,5.92315 -8.1811,1.51598 -5.51487,-6.85069 -9.15784,6.67982 -14.6569,1.16546 -3.76609,-2.29262 -6.80735,-2.86959 -10.73412,1.02925 -3.1988,-1.26561 -10.37055,-4.83371 -12.28915,-0.68445 -2.54512,2.72148 -5.99598,0.35974 -8.806814,-1.16887 -1.873664,0.1048 -6.659621,0.69112 -8.950638,2.37753 0.0015,-0.30164 -3.77398,1.40591 -5.623007,-0.56229 -4.007683,-2.83646 -6.268262,4.88938 -7.910114,1.68745 -1.272977,3.3606 -3.823313,-3.79476 -7.123353,-1.32936 -0.430584,0.8453 -2.326039,2.21272 -4.311964,0.34896 0.09402,0.71342 -4.033501,-1.62652 -6.887375,-0.79634 -3.978844,-0.1488 -10.29973,-3.27827 -13.849199,-1.54628 -1.075779,-5.63617 -8.945529,-0.0762 -4.848294,3.10429 3.968357,3.41638 -0.512268,8.32866 -1.441048,6.35111 -1.276248,3.228 3.870142,5.16235 5.246593,4.74807 4.70711,2.78381 -0.011,5.31548 -5.329855,8.41366 -10.008008,5.79291 -20.397669,13.6895 -32.2889337,14.41606 z"
         id="path3571"
         style="fill:#616161" />
      <path
         d="m 67.614084,175.08569 c -0.02124,-0.14868 -0.125236,-0.27033 -0.231093,-0.27033 -0.214047,0 -0.324385,0.35965 -0.205436,0.66963 0.113462,0.29568 0.487005,-0.046 0.436527,-0.3993 z"
         id="path3569"
         style="fill:#616161" />
      <path
         d="m 215.58337,174.31703 c 0.31389,-0.22951 0.14983,-0.47288 -0.31876,-0.47288 -0.44002,0 -0.60294,0.19483 -0.38377,0.45891 0.1949,0.23484 0.39503,0.23882 0.70253,0.014 z"
         id="path3567"
         style="fill:#616161" />
      <path
         d="m 212.02723,172.73124 c 0,-0.10513 -0.0928,-0.33282 -0.20627,-0.50597 -0.13735,-0.2096 -0.19144,-0.52184 -0.16187,-0.93428 0.0347,-0.48404 0.002,-0.61947 -0.14984,-0.61947 -0.11316,0 -0.17835,0.0946 -0.1562,0.22662 0.0526,0.31317 -0.30414,0.28793 -0.5322,-0.0377 -0.23862,-0.34067 -0.42124,0.14363 -0.20589,0.54602 0.0706,0.13192 0.0902,0.44364 0.0434,0.6927 -0.0895,0.47733 0.0886,0.83849 0.4135,0.83849 0.11188,0 0.17839,-0.14485 0.17839,-0.38849 0,-0.5212 0.20485,-0.49184 0.40362,0.0578 0.15738,0.43523 0.37335,0.50707 0.37335,0.12419 z"
         id="path3565"
         style="fill:#616161" />
      <path
         d="m 212.45197,171.99401 c 0.0352,-0.0917 -0.006,-0.33676 -0.0905,-0.54462 -0.15448,-0.37793 -0.15448,-0.37793 -0.14724,0.16629 0.007,0.53633 0.11268,0.70427 0.23774,0.37833 z"
         id="path3563"
         style="fill:#616161" />
      <path
         d="m 89.395382,169.72189 c 0,-0.18223 -0.145776,-0.2662 -0.335654,-0.19333 -0.09946,0.0382 -0.148599,0.12156 -0.109193,0.18532 0.09038,0.14624 0.444847,0.15263 0.444847,0.008 z"
         id="path3561"
         style="fill:#616161" />
      <path
         d="m 266.43008,168.76147 c 0.008,-0.089 0.004,-0.26884 -0.01,-0.39959 -0.0137,-0.13075 0.0639,-0.33585 0.17241,-0.45579 0.5166,-0.57083 -0.16703,-1.64894 -0.95329,-1.50338 -0.62033,0.11485 -0.64846,0.14331 -0.64846,0.65612 0,0.75998 1.37623,2.38794 1.43937,1.70264 z"
         id="path3559"
         style="fill:#616161" />
      <path
         d="m 271.72447,168.16222 c 0,-0.21858 -0.33965,-0.39286 -0.62184,-0.31907 -0.50369,0.13172 -0.29337,0.4006 0.33047,0.42249 0.16025,0.006 0.29137,-0.0409 0.29137,-0.10342 z"
         id="path3557"
         style="fill:#616161" />
      <path
         d="m 277.90792,167.79026 c 0.0362,-0.10876 -0.10899,-0.16816 -0.44251,-0.18105 -0.70624,-0.0273 -0.85806,-0.0492 -1.09456,-0.15803 -0.11532,-0.0531 -0.51955,-0.0786 -0.8983,-0.0568 -0.66549,0.0384 -0.68071,0.0476 -0.45269,0.27457 0.19464,0.19374 0.41339,0.2288 1.24968,0.20029 0.55755,-0.019 1.05673,0.008 1.10928,0.061 0.13717,0.13717 0.46575,0.0502 0.5291,-0.14002 z"
         id="path3555"
         style="fill:#616161" />
      <path
         d="m 284.73872,167.3694 c 0.044,-0.0712 -0.0399,-0.1295 -0.1866,-0.1295 -0.14664,0 -0.26663,0.0583 -0.26663,0.1295 0,0.0712 0.084,0.12949 0.1866,0.12949 0.10263,0 0.22261,-0.0583 0.26663,-0.12949 z"
         id="path3553"
         style="fill:#616161" />
      <path
         d="m 214.81182,165.84783 c 0.065,-0.76108 0.0492,-1.06834 -0.0549,-1.06834 -0.32325,0 -0.52337,1.12569 -0.34182,1.92286 0.14862,0.65256 0.29493,0.33746 0.39675,-0.85452 z"
         id="path3551"
         style="fill:#616161" />
      <path
         d="m 203.37324,166.6371 c 0.28183,-0.25506 0.31623,-0.585 0.0503,-0.48297 -0.26373,0.1012 -0.64142,0.69729 -0.44182,0.69729 0.0851,0 0.26124,-0.0964 0.39148,-0.21432 z"
         id="path3549"
         style="fill:#616161" />
      <path
         d="m 202.89783,166.07445 c 0.19792,-0.38275 0.196,-0.38849 -0.13023,-0.38849 -0.34996,0 -0.53003,0.25866 -0.40568,0.58273 0.1162,0.3028 0.3164,0.23023 0.53591,-0.19424 z"
         id="path3547"
         style="fill:#616161" />
      <path
         d="m 205.48631,166.13092 c 0.33509,-0.0629 0.44971,-0.14156 0.39893,-0.27388 -0.0406,-0.10589 0.0812,-0.31692 0.28361,-0.4911 0.44071,-0.37933 0.32345,-0.55757 -0.13143,-0.19977 -0.18235,0.14344 -0.39716,0.2608 -0.47735,0.2608 -0.1468,0 -0.91406,0.72192 -0.91406,0.86004 0,0.0408 0.0833,0.0422 0.18505,0.003 0.10177,-0.0391 0.39663,-0.11071 0.65525,-0.15922 z"
         id="path3545"
         style="fill:#616161" />
      <path
         d="m 204.69333,165.61048 c 0.20407,-0.17946 0.3379,-0.35943 0.2974,-0.39995 -0.11619,-0.11618 -0.69463,0.0669 -0.91839,0.29063 -0.51195,0.51195 0.0505,0.61097 0.62098,0.10932 z"
         id="path3543"
         style="fill:#616161" />
      <path
         d="m 210.39691,165.69882 c 0.15532,-0.17164 0.17852,-0.27347 0.0767,-0.33643 -0.14839,-0.0917 -0.64775,0.27303 -0.64775,0.47314 0,0.197 0.34352,0.11477 0.5711,-0.13671 z"
         id="path3541"
         style="fill:#616161" />
      <path
         d="m 264.90323,163.93778 c 0.27887,-0.23431 0.60547,-1.30456 0.60547,-1.9841 0,-0.35687 -0.50637,0.23654 -0.59217,0.69399 -0.0436,0.23239 -0.21839,0.54348 -0.38842,0.69132 -0.24301,0.2113 -0.29266,0.35119 -0.23209,0.65399 0.0424,0.21186 0.0141,0.56577 -0.0629,0.78648 -0.0769,0.2207 -0.10211,0.58779 -0.0559,0.81576 0.0749,0.36967 0.10199,0.31649 0.25086,-0.49199 0.12246,-0.66502 0.24901,-0.97545 0.47515,-1.16545 z"
         id="path3539"
         style="fill:#616161" />
      <path
         d="m 222.55554,165.49349 c 0.014,-0.0702 -0.0764,-0.14736 -0.20108,-0.17136 -0.14174,-0.0273 -0.22661,0.0362 -0.22661,0.16959 0,0.22529 0.38269,0.22688 0.42769,0.002 z"
         id="path3537"
         style="fill:#616161" />
      <path
         d="m 271.6494,164.10746 c 0.10922,-0.15595 0.17116,-0.31099 0.13763,-0.34453 -0.0774,-0.0774 -0.58055,0.37219 -0.58055,0.51866 0,0.2057 0.24408,0.10975 0.44292,-0.17413 z"
         id="path3535"
         style="fill:#616161" />
      <path
         d="m 233.18492,163.04411 c 0.34434,-0.72561 0.23859,-1.243 -0.25402,-1.243 -0.33431,0 -0.31772,0.25195 0.0444,0.67417 0.16694,0.19465 0.1646,0.24582 -0.0197,0.43011 -0.22471,0.22471 -0.2825,0.57915 -0.0944,0.57915 0.0631,0 0.20878,-0.19819 0.32373,-0.44043 z"
         id="path3533"
         style="fill:#616161" />
      <path
         d="m 234.28676,162.91823 c 0.196,-0.23615 0.0455,-0.59914 -0.24843,-0.59914 -0.28625,0 -0.39061,0.24559 -0.23387,0.55035 0.14028,0.27274 0.28434,0.28731 0.4823,0.0488 z"
         id="path3531"
         style="fill:#616161" />
      <path
         d="m 264.07485,162.75486 c 0.31566,-0.40129 0.34698,-0.69476 0.0741,-0.69476 -0.10683,0 -0.19424,-0.0357 -0.19424,-0.0792 0,-0.17186 0.94197,-1.81564 1.1973,-2.08932 0.14923,-0.15997 0.22751,-0.33468 0.17394,-0.38825 -0.21664,-0.21664 -1.71808,2.28302 -1.96697,3.27471 -0.11231,0.44747 0.35758,0.43225 0.71582,-0.0232 z"
         id="path3529"
         style="fill:#616161" />
      <path
         d="m 265.32093,161.0116 c 0.3701,-0.71566 0.15141,-0.81472 -0.35247,-0.15966 -0.26151,0.33999 -0.44736,0.66366 -0.413,0.71927 0.10837,0.17534 0.55383,-0.1503 0.76547,-0.55961 z"
         id="path3527"
         style="fill:#616161" />
      <path
         d="m 185.86637,160.47378 c -0.01,-1.00708 -1.82771,-3.46295 -4.04988,-5.47116 -1.24632,-1.12634 -1.46433,-1.22904 -1.42527,-0.67142 0.028,0.40007 0.80863,1.37378 3.34071,4.1671 0.83895,0.92551 1.61148,1.81417 1.71673,1.9748 0.24438,0.37296 0.42135,0.37325 0.41771,6.2e-4 z"
         id="path3525"
         style="fill:#616161" />
      <path
         d="m 259.16344,159.32891 c 0,-0.0603 -0.0874,-0.076 -0.19424,-0.035 -0.10683,0.041 -0.19424,0.16285 -0.19424,0.27078 0,0.15976 0.0361,0.16628 0.19424,0.035 0.10684,-0.0887 0.19424,-0.21052 0.19424,-0.27078 z"
         id="path3523"
         style="fill:#616161" />
      <path
         d="m 175.95626,154.71125 c -0.71897,-0.90064 -1.22362,-1.28296 -1.22362,-0.927 0,0.20751 1.32928,1.54035 1.53717,1.5413 0.10592,5.1e-4 -0.0205,-0.24716 -0.31355,-0.6143 z"
         id="path3521"
         style="fill:#616161" />
      <path
         d="m 244.9098,154.56652 c 0.28287,-0.5286 0.31071,-1.44158 0.044,-1.44158 -0.3526,0 -0.64393,0.36488 -0.75071,0.94026 -0.14058,0.75745 0.37427,1.12264 0.70676,0.50132 z"
         id="path3519"
         style="fill:#616161" />
      <path
         d="m 251.46766,153.97267 c -0.21903,-0.57354 -0.46241,-0.78255 -0.46241,-0.39712 0,0.4037 0.42133,1.25178 0.55532,1.11779 0.0896,-0.0896 0.0598,-0.32091 -0.0929,-0.72067 z"
         id="path3515"
         style="fill:#616161" />
      <path
         d="m 257.95116,153.44867 c 0.12743,-0.3321 -0.0843,-0.71118 -0.21697,-0.38848 -0.0586,0.14244 -0.11059,0.33183 -0.11558,0.42086 -0.0128,0.22721 0.24247,0.20236 0.33255,-0.0324 z"
         id="path3513"
         style="fill:#616161" />
      <path
         d="m 256.60351,152.92163 c -0.0426,-0.2225 -0.10667,-0.28977 -0.19349,-0.20295 -0.14385,0.14384 -0.0403,0.53575 0.1415,0.53575 0.0636,0 0.087,-0.14976 0.052,-0.3328 z"
         id="path3511"
         style="fill:#616161" />
      <path
         d="m 174.08517,152.88602 c 0,-0.0602 -0.11655,-0.2149 -0.25899,-0.34381 -0.28501,-0.25794 -0.3313,-0.18283 -0.12494,0.20275 0.13513,0.2525 0.38393,0.3439 0.38393,0.14106 z"
         id="path3509"
         style="fill:#616161" />
      <path
         d="m 258.64546,151.44914 c 0,-0.29581 -0.20416,-0.4601 -0.32626,-0.26254 -0.10878,0.17601 0.0179,0.51389 0.19269,0.51389 0.0735,0 0.13357,-0.11311 0.13357,-0.25135 z"
         id="path3507"
         style="fill:#616161" />
      <path
         d="m 284.61384,136.54197 c 0.26214,-0.43151 0.44705,-0.81411 0.41094,-0.85022 -0.0815,-0.0815 -0.6356,0.64852 -0.92157,1.21393 -0.3681,0.72781 0.012,0.45704 0.51063,-0.36371 z"
         id="path3505"
         style="fill:#616161" />
      <path
         d="m 85.151081,196.82158 c -0.02891,-0.34934 0.118023,-0.48011 0.41251,-0.3671 0.275013,0.10553 0.254536,0.20439 -0.09482,0.45781 -0.280366,0.20337 -0.293662,0.19957 -0.317686,-0.0907 z"
         id="path3503"
         style="fill:#616161" />
      <path
         d="m 46.793481,189.61018 c 0.0033,-0.27136 0.219616,-0.524 0.369373,-0.43145 0.10053,0.0621 0.09572,0.16037 -0.01667,0.34033 -0.179123,0.28682 -0.355657,0.33243 -0.3527,0.0911 z"
         id="path3495"
         style="fill:#616161" />
      <path
         d="m 208.01288,189.41382 c 0,-0.17646 2.96679,-3.06342 3.05622,-2.97398 0.30077,0.30077 -0.99918,1.86712 -2.20432,2.65602 -0.64377,0.42142 -0.8519,0.49911 -0.8519,0.31796 z"
         id="path3493"
         style="fill:#616161" />
      <path
         d="m 45.392951,188.71019 c -0.187228,-0.18723 -0.201956,-0.36259 -0.03045,-0.36259 0.06872,0 0.187312,0.11655 0.263546,0.25899 0.152649,0.28523 0.01134,0.34803 -0.233091,0.1036 z"
         id="path3489"
         style="fill:#616161" />
      <path
         d="m 124.11357,173.07827 c -0.10704,-0.0678 -0.14554,-0.20617 -0.0944,-0.33938 0.0816,-0.21252 0.10047,-0.21213 0.34261,0.007 0.41593,0.37641 0.22505,0.63204 -0.24819,0.33238 z"
         id="path3475"
         style="fill:#616161" />
      <path
         d="m 219.92643,172.41971 c -0.15297,-0.0945 -0.15934,-0.15145 -0.0313,-0.2795 0.12506,-0.12506 0.19532,-0.12626 0.31618,-0.005 0.21009,0.21009 -0.0252,0.44538 -0.28489,0.28489 z"
         id="path3471"
         style="fill:#616161" />
      <path
         d="m 158.25439,171.16498 c -0.12463,-0.0326 -0.22661,-0.17634 -0.22661,-0.3195 0,-0.3185 0.23597,-0.25858 0.49032,0.1245 0.18885,0.28443 0.16002,0.30574 -0.26371,0.195 z"
         id="path3467"
         style="fill:#616161" />
      <path
         d="m 175.8981,170.62684 c 0,-0.0602 0.10568,-0.20507 0.23486,-0.32197 0.26335,-0.23833 0.57516,-0.0644 0.45339,0.25294 -0.0732,0.1908 -0.68825,0.25249 -0.68825,0.069 z"
         id="path3465"
         style="fill:#616161" />
      <path
         d="m 201.41685,169.56434 c 0.008,-0.41979 0.0158,-0.42784 0.13344,-0.13344 0.0829,0.20746 0.0801,0.35839 -0.008,0.44675 -0.0916,0.0916 -0.13087,-0.007 -0.12524,-0.31331 z"
         id="path3463"
         style="fill:#616161" />
      <path
         d="m 201.27914,168.53485 c 0,-0.37874 0.18809,-0.53644 0.28676,-0.24042 0.0363,0.10904 0.12846,0.10573 0.34951,-0.0126 0.24676,-0.13206 0.28599,-0.1296 0.22051,0.0138 -0.0438,0.0959 -0.11561,0.27642 -0.15958,0.40106 -0.14681,0.41623 -0.6972,0.28844 -0.6972,-0.16187 z"
         id="path3461"
         style="fill:#616161" />
      <path
         d="m 191.43751,168.40536 c 0,-0.0712 0.12,-0.1295 0.26664,-0.1295 0.14665,0 0.23061,0.0583 0.18659,0.1295 -0.044,0.0712 -0.164,0.12949 -0.26662,0.12949 -0.10264,0 -0.18661,-0.0583 -0.18661,-0.12949 z"
         id="path3459"
         style="fill:#616161" />
      <path
         d="m 205.63849,167.57236 c -0.0388,-0.10121 0.0133,-0.2537 0.11591,-0.33885 0.15217,-0.12627 0.18656,-0.10554 0.18656,0.11239 0,0.32624 -0.20522,0.47989 -0.30248,0.22646 z"
         id="path3455"
         style="fill:#616161" />
      <path
         d="m 88.153607,216.90127 c -1.051846,-2.70673 -7.974106,-15.00816 -5.896827,-14.89633 4.581164,1.68838 6.014204,2.45624 8.383591,0.88744 -6.640778,9.936 10.510659,-6.3181 1.605653,3.67086 -4.497402,3.40678 2.808441,1.10746 6.045334,-3.66505 -1.810693,4.23499 -2.910394,3.24423 -7.171435,8.45431 3.473853,-2.7517 9.927217,-8.07873 9.541517,-6.36031 10.74248,-1.22487 -8.435943,9.66129 -11.622897,11.89261 l -0.79829,0.32405 -0.08666,-0.30795 z m 5.223765,-5.1065 c 2.516861,-2.26366 -2.907299,1.50478 0,0 z m -3.461412,-4.73826 c 0.53316,-0.85054 -1.123586,0.57285 0,0 z m 110.82717,9.78181 c 0.55341,-1.99013 0.65406,-3.9407 -1.14957,-0.71272 2.15616,-3.93992 -4.61336,1.89919 -1.46023,-3.80679 2.4535,-8.168 2.38776,-1.57982 0.17679,2.18683 3.35379,-4.01297 6.15706,-14.96816 3.4115,-4.46595 -1.3585,9.68189 4.1244,-14.08454 2.10987,-1.24943 -0.87041,1.82571 -0.43558,8.44054 -3.08836,8.04806 z m -1.79946,-1.67672 c 0.87011,-1.84111 -1.57541,0.86883 0,0 z m 2.85345,-0.31715 c -1.23599,-4.21388 -0.36862,1.30482 0,0 z m 1.73808,-7.39632 c -0.0607,-1.6494 -0.49085,2.86001 0,0 z m -7.18044,6.19672 c -5.68894,-1.88861 -4.01529,-12.06615 -2.45798,-8.8553 -3.60284,3.82639 7.89726,-4.59008 2.4044,1.11183 0.18262,0.90408 1.06028,-0.64892 -0.072,2.26091 4.11105,-4.51552 5.70046,-7.51301 2.3449,-0.88268 -2.40324,4.25901 -0.86644,3.16584 -2.21932,6.36524 z m -0.76102,-7.24762 c 0.3911,-0.78542 -1.03895,0.83649 0,0 z m -0.71719,-0.10397 c 0.62063,-0.98746 -1.15604,0.74036 0,0 z m 9.31623,7.69437 c -2.60653,-2.10307 3.74408,-14.14736 2.85189,-7.83181 2.32238,-13.26243 1.22489,10.08884 -2.85189,7.83181 z M 8.1613662,207.94001 c 6.8097938,-6.37974 8.5387808,-15.39433 10.0735588,-23.9035 1.539197,-8.53367 2.983714,-18.33673 -1.090759,-25.99123 -3.889875,-7.3077 -15.0222564,-18.12989 -3.236791,-13.5906 12.584608,6.52225 22.946179,16.98883 33.78624,25.92679 -4.072509,-1.70784 -4.783835,-3.02441 -8.18795,-2.75286 0.305903,1.62867 -2.133512,1.87406 -3.843426,2.05837 -3.48935,2.32897 5.683712,-0.63403 3.033869,4.74347 -1.394738,4.57876 -7.707478,2.80647 -4.854107,5.00323 -3.544087,2.37386 -1.774837,2.59693 -2.460406,5.15108 1.040284,6.29404 5.099712,-9.40419 6.923869,-1.61867 -1.738391,3.81494 -1.569641,5.80187 -1.857913,8.77109 -4.035466,2.07565 1.855131,-0.70197 -0.821024,2.08376 4.875989,-4.51372 11.341641,-0.77837 2.653229,2.15767 -9.676037,5.70978 -22.329115,13.81079 -33.7715068,15.03615 1.1601849,-0.98307 2.7207646,-2.20128 3.653117,-3.07475 z M 36.489557,191.25388 c 0.482217,-1.01025 -1.347278,1.11808 0,0 z m -3.428288,-12.22487 c 0.588228,-0.59003 -1.160796,0.31585 0,0 z m 1.169206,-3.56617 c -1.179141,-2.27418 -0.967263,0.91894 0,0 z m 0.388485,-2.59446 c 0.363597,-4.6106 -3.471406,0.90951 0,0 z m 166.1422,33.42892 c 1.44318,-3.49651 2.18617,-2.67412 0,0 z M 37.363177,190.15082 c 0.437315,-0.50423 0.437315,0.50423 0,0 z m 161.383963,-1.26553 c -6.71735,-3.93818 -20.06073,-20.2068 -2.98159,-15.58379 7.18134,1.22894 -5.02076,-2.04562 5.21725,0.12027 7.89927,1.44529 -6.12529,-0.42648 3.63319,1.73985 -4.53538,-0.27522 1.68175,1.59389 0.25689,1.94522 1.6832,1.55994 -1.03282,3.30164 0.49535,3.39975 -0.30242,1.89914 -9.08578,4.59384 -5.90164,4.09094 3.48512,-1.27072 5.46625,0.0231 0.66802,1.20274 -3.94567,-1.31409 -3.66188,0.86529 -0.23629,3.58299 l -1.15089,-0.49827 z m -0.26433,-4.80091 c 0.94233,-2.68534 -4.04506,1.675 0,0 z m -0.94199,-1.6252 c 6.88626,-1.17288 -3.15087,-1.56792 -1.41863,0.2283 l 0.21729,0.0724 1.2013,-0.30073 z m 5.7008,-0.27603 c -7.23312,-0.91052 -0.29062,1.0944 0,0 z m -12.50935,-2.62993 c -0.86999,-0.5515 -0.007,0.79849 0,0 z m 8.55493,0.0814 c -0.4666,-1.24861 -4.64986,1.18498 0,0 z m -1.83511,-2.43623 c -4.56776,-0.49482 0.81709,0.63978 0,0 z m 10.94928,9.10938 c 1.45853,-1.72086 1.29655,-0.78334 0,0 z M 39.617042,183.14638 c -5.56295,-6.32092 6.406302,-7.38647 0,0 z m -4.803839,-3.73188 c -0.449088,-0.43737 1.554678,-0.0346 0,0 z m 182.217307,-4.26985 c -4.1902,-5.28702 -2.89245,-10.49822 0.10079,-12.87222 -6.01745,3.41873 6.1655,16.17986 -0.38499,11.291 -0.0618,0.47526 2.01021,3.28738 0.2842,1.58122 z m -22.8736,-2.4521 c 0.74223,-0.6384 0.55426,0.5035 0,0 z m -108.775876,-0.6938 c -10.479957,-0.20547 0.274352,-0.73126 4.289359,-2.33626 -5.129561,-3.11157 -6.83097,-3.09207 -4.622186,-1.25516 -8.410357,0.022 -5.421014,-0.51445 -0.807456,-4.49222 4.557887,-5.64461 6.786608,-19.8953 15.213886,-9.45876 5.821783,6.33398 13.685103,13.14661 20.657453,13.59737 6.59655,-1.17623 18.17112,1.52745 7.62243,0.56314 -2.48622,-1.15671 -12.52237,2.8377 -14.25452,0.0543 2.89765,0.28284 -6.39531,-2.97052 -3.71612,0.67253 -4.26883,1.74317 -9.51156,1.99782 -13.764252,1.97477 -2.606991,0.67744 -7.280011,1.01461 -10.618594,0.68032 z m 6.60137,-2.65455 c -4.280816,-5.19501 -8.268325,-3.31773 0,0 z m 2.982692,-0.19425 c -1.918638,-5.79157 -8.80698,-6.31672 -1.14604,-0.84738 0.485015,-0.20824 0.645624,1.48338 1.14604,0.84738 z m 21.696624,-0.29136 c 0.30599,-1.4772 -2.15576,0.57304 0,0 z m 2.12542,-0.18926 c 0.16511,-0.75397 -1.66253,0.54888 0,0 z m 11.39919,-0.0697 c -4.07847,-0.72363 -0.69768,0.45263 0,0 z m -14.84511,-0.64748 c -0.30791,-0.69925 -0.45389,0.68537 0,0 z M 98.105983,167.3394 c -4.957347,-6.56022 -5.240779,-3.02966 -0.358168,0.34156 l 0.479012,0.0946 z m 3.072967,-0.26137 c -2.409188,-4.68916 -5.720227,-4.01394 0,0 z m 1.16594,-2.167 c -0.55138,-1.38119 -1.20037,-0.17469 0,0 z m 161.98091,3.97705 c -2.16262,-4.65207 1.51833,-9.94091 -0.32356,-1.59113 -0.13981,-0.38232 2.47479,3.44594 0.32356,1.59113 z m -131.31993,0.22172 c 2.14713,-2.03711 2.39069,-0.10277 0,0 z m 134.9656,-0.34833 c 0.17984,-2.74219 2.07908,-15.05733 -2.24432,-10.51928 2.09899,-4.83836 8.39202,-12.45849 -0.0222,-6.22964 -4.96284,1.17012 -13.17217,12.48042 -6.92705,2.74154 5.93177,-1.41595 18.62426,-13.74355 6.31938,-7.9842 -10.58836,-0.60225 -10.23971,18.10781 -21.2143,11.15287 -5.39729,-4.11017 -12.56461,1.95412 -17.45653,1.13478 -5.63517,2.3902 -4.90634,-0.0899 -9.17568,1.62643 -2.80784,-1.34906 -7.15013,0.5537 -3.24616,-1.41457 5.00003,-0.81547 8.55128,-1.26043 14.76084,-4.46013 15.93486,-5.98111 32.83636,-9.40908 48.67216,-15.66155 3.23719,-3.51823 13.9941,-10.87103 6.81042,-1.10887 -4.87314,7.28875 -13.50011,16.48389 -12.08733,25.22192 10.56313,1.18575 21.4721,-0.0156 31.79248,-1.48854 -7.09435,3.51386 -16.85538,3.01538 -25.0228,3.61682 -5.27033,-1.29214 -7.92701,1.6074 -10.95895,3.37242 z m 2.93851,-3.85248 c 3.31654,-3.35325 -1.51963,0.45468 0,0 z m 21.59845,-1.29495 c -0.70776,-0.47408 -0.48181,0.48627 0,0 z m -73.53866,-4.34213 c 0.58856,-1.39616 -1.13677,1.18693 0,0 z m 30.09305,-1.00149 c 10.02979,-7.51447 -12.16149,-8.29982 -1.8427,0.033 l 0.78159,0.11184 z m 20.07174,-1.91575 c -0.40035,-0.70003 -0.2301,0.87889 0,0 z m 6.6117,-10.49536 c 0.18646,-1.72984 -1.41839,1.18312 0,0 z m -0.69961,-0.9629 c 0.31765,-0.89054 -1.24338,0.68504 0,0 z m 2.14483,-1.90446 c 1.50843,-3.20979 -1.64097,0.45258 0,0 z m 6.66489,-5.3093 c 5.87997,-7.66367 -3.81686,3.11544 0,0 z m -147.84276,30.73221 c -1.09973,-0.34449 2.55994,-0.0719 0,0 z m 9.58264,-0.01 c 0.94601,-0.33881 0.75484,0.10549 0,0 z m -1.0916,-0.11478 c 0.68284,-0.85011 1.55405,0.57219 0,0 z m 21.62059,-1.17368 c 0.92211,-1.14839 0.58262,0.56149 0,0 z m 3.75134,-0.24103 c -5.87144,0.33438 -8.02114,-4.28279 -2.87754,-9.2279 -1.12865,-8.054 8.94728,-16.77038 13.75983,-6.40067 2.56299,5.46527 15.70525,12.16098 3.3342,12.9638 -4.29561,2.36601 -9.77695,1.32963 -14.21649,2.66477 z m 16.64012,-3.90931 c 1.31272,-0.54417 -1.80545,-0.24737 0,0 z m 0.64747,-0.90359 c -1.78596,-7.99075 -10.89098,-10.82653 -8.52865,-7.65145 1.32918,1.10724 4.44159,4.32047 8.52865,7.65145 z m -6.86324,-6.21864 c -0.79301,-1.15662 1.15666,0.79302 0,0 z m -3.06486,5.79491 c -0.36146,-2.18471 -5.4418,-6.73115 -4.41912,-2.966 0.78773,0.54478 3.74262,4.43803 4.41912,2.966 z m -9.95884,-0.41808 c -1.38482,-0.4673 0.86316,0.73341 0,0 z m 14.61271,-0.43628 c -2.10763,-3.53622 -4.78874,-6.43572 -8.59308,-8.81748 1.58103,2.82751 6.86606,8.42253 8.59308,8.81748 z m -3.92403,-2.70676 c -3.15846,-4.31296 -5.38635,-4.48148 0,0 z m -9.6509,8.57494 c 1.25678,-0.81705 -0.29193,0.78578 0,0 z m 22.63689,-2.61405 c -0.57858,-0.62908 0.83369,0.12555 0,0 z m 0.63557,-0.0211 c 0.64815,-0.93468 1.62122,0.26787 0,0 z m -5.31898,-0.0629 c 2.63673,-0.40809 0.5801,0.23523 0,0 z m 7.49993,-0.68263 c -4.05216,-1.1471 11.638,-0.21366 2.65154,-0.36088 -0.68431,-0.90035 -2.04285,0.69607 -2.65154,0.36088 z m 6.21577,-1.08279 c 0.70779,-0.47406 0.48176,0.48628 0,0 z m 6.83075,-0.83753 c 0.92563,-1.42641 0.67698,1.10215 0,0 z m 1.92818,0.10016 c 0.18592,-2.36734 4.34894,-0.24128 0,0 z m -2.80216,-0.42808 c 1.05978,-0.37828 0.0709,0.45174 0,0 z m 4.79132,0.0159 c 0.32298,-0.92881 1.19085,0.3668 0,0 z m 8.54667,-3.11462 c 0.44229,-0.7173 0.69824,0.0926 0,0 z"
         id="path3402"
         style="fill:#262626" />
      <ellipse
         cx="247.90172"
         cy="154.97598"
         rx="3.9233825"
         ry="3.5870924"
         id="path3506"
         style="fill:#616161;fill-opacity:1;stroke:none" />
      <ellipse
         cx="250.08578"
         cy="155.13148"
         rx="1.9058489"
         ry="1.9338586"
         transform="matrix(1,0,-0.0140788,0.99990089,0,0)"
         id="path3506-6"
         style="fill:#000000;fill-opacity:1;stroke:none" />
    </g>
    <text
       x="28.696739"
       y="236.50464"
       id="text3465"
       xml:space="preserve"
       style="font-size:40px;font-style:normal;font-weight:normal;line-height:125%;letter-spacing:0px;word-spacing:0px;fill:#000000;fill-opacity:1;stroke:none;font-family:sans-serif"><tspan
         x="28.696739"
         y="236.50464"
         id="tspan3467" /></text>
  </g>
</svg>
